<mxfile host="65bd71144e">
    <diagram id="EJJoIpa0Ixg292z9p1di" name="Page-1">
        <mxGraphModel dx="1511" dy="984" grid="1" gridSize="10" guides="1" tooltips="1" connect="1" arrows="1" fold="1" page="1" pageScale="1" pageWidth="850" pageHeight="1100" math="0" shadow="0">
            <root>
                <mxCell id="0"/>
                <mxCell id="1" parent="0"/>
                <mxCell id="9" style="edgeStyle=none;html=1;exitX=0.5;exitY=0;exitDx=0;exitDy=0;entryX=0.001;entryY=0.32;entryDx=0;entryDy=0;endArrow=none;endFill=0;entryPerimeter=0;" parent="1" source="2" target="7" edge="1">
                    <mxGeometry relative="1" as="geometry">
                        <Array as="points">
                            <mxPoint x="160" y="373"/>
                        </Array>
                    </mxGeometry>
                </mxCell>
                <mxCell id="10" value="0..N" style="edgeLabel;html=1;align=center;verticalAlign=middle;resizable=0;points=[];fontSize=15;" parent="9" vertex="1" connectable="0">
                    <mxGeometry x="0.324" y="-1" relative="1" as="geometry">
                        <mxPoint x="91" y="-14" as="offset"/>
                    </mxGeometry>
                </mxCell>
                <mxCell id="11" value="Owes" style="edgeLabel;html=1;align=center;verticalAlign=middle;resizable=0;points=[];fontSize=15;" parent="9" vertex="1" connectable="0">
                    <mxGeometry x="0.1223" y="2" relative="1" as="geometry">
                        <mxPoint x="-37" y="109" as="offset"/>
                    </mxGeometry>
                </mxCell>
                <mxCell id="12" value="1" style="edgeLabel;html=1;align=center;verticalAlign=middle;resizable=0;points=[];fontSize=15;" parent="9" vertex="1" connectable="0">
                    <mxGeometry x="-0.8522" y="-3" relative="1" as="geometry">
                        <mxPoint x="-13" y="14" as="offset"/>
                    </mxGeometry>
                </mxCell>
                <mxCell id="13" style="edgeStyle=none;html=1;exitX=0.75;exitY=0;exitDx=0;exitDy=0;entryX=0;entryY=0.65;entryDx=0;entryDy=0;fontSize=15;endArrow=none;endFill=0;entryPerimeter=0;" parent="1" source="2" target="7" edge="1">
                    <mxGeometry relative="1" as="geometry">
                        <Array as="points">
                            <mxPoint x="200" y="405"/>
                        </Array>
                    </mxGeometry>
                </mxCell>
                <mxCell id="14" value="Lent" style="edgeLabel;html=1;align=center;verticalAlign=middle;resizable=0;points=[];fontSize=15;" parent="13" vertex="1" connectable="0">
                    <mxGeometry x="0.2081" relative="1" as="geometry">
                        <mxPoint x="-39" y="75" as="offset"/>
                    </mxGeometry>
                </mxCell>
                <mxCell id="15" value="0..N" style="edgeLabel;html=1;align=center;verticalAlign=middle;resizable=0;points=[];fontSize=15;" parent="13" vertex="1" connectable="0">
                    <mxGeometry x="0.8586" y="-1" relative="1" as="geometry">
                        <mxPoint y="-16" as="offset"/>
                    </mxGeometry>
                </mxCell>
                <mxCell id="16" value="1" style="edgeLabel;html=1;align=center;verticalAlign=middle;resizable=0;points=[];fontSize=15;" parent="13" vertex="1" connectable="0">
                    <mxGeometry x="-0.8616" relative="1" as="geometry">
                        <mxPoint x="-10" y="8" as="offset"/>
                    </mxGeometry>
                </mxCell>
                <mxCell id="2" value="User" style="swimlane;childLayout=stackLayout;horizontal=1;startSize=30;horizontalStack=0;rounded=1;fontSize=14;fontStyle=0;strokeWidth=2;resizeParent=0;resizeLast=1;shadow=0;dashed=0;align=center;" parent="1" vertex="1">
                    <mxGeometry x="80" y="540" width="160" height="140" as="geometry"/>
                </mxCell>
                <mxCell id="3" value="&lt;&lt;PK&gt;&gt; Id&#10;Name&#10;Surname&#10;Bank Account&#10;Email&#10;PhotoURI" style="align=left;strokeColor=none;fillColor=none;spacingLeft=4;fontSize=12;verticalAlign=top;resizable=0;rotatable=0;part=1;" parent="2" vertex="1">
                    <mxGeometry y="30" width="160" height="110" as="geometry"/>
                </mxCell>
                <mxCell id="4" value="Group" style="swimlane;childLayout=stackLayout;horizontal=1;startSize=30;horizontalStack=0;rounded=1;fontSize=14;fontStyle=0;strokeWidth=2;resizeParent=0;resizeLast=1;shadow=0;dashed=0;align=center;" parent="1" vertex="1">
                    <mxGeometry x="540" y="540" width="160" height="120" as="geometry"/>
                </mxCell>
                <mxCell id="5" value="&lt;&lt;PK&gt;&gt; Id&#10;Name&#10;PhotoURI" style="align=left;strokeColor=none;fillColor=none;spacingLeft=4;fontSize=12;verticalAlign=top;resizable=0;rotatable=0;part=1;" parent="4" vertex="1">
                    <mxGeometry y="30" width="160" height="90" as="geometry"/>
                </mxCell>
                <mxCell id="17" style="edgeStyle=none;html=1;exitX=1;exitY=0.5;exitDx=0;exitDy=0;entryX=0.25;entryY=0;entryDx=0;entryDy=0;fontSize=15;endArrow=none;endFill=0;" parent="1" source="6" target="4" edge="1">
                    <mxGeometry relative="1" as="geometry">
                        <Array as="points">
                            <mxPoint x="580" y="375"/>
                        </Array>
                    </mxGeometry>
                </mxCell>
                <mxCell id="18" value="In context of" style="edgeLabel;html=1;align=center;verticalAlign=middle;resizable=0;points=[];fontSize=15;" parent="17" vertex="1" connectable="0">
                    <mxGeometry x="-0.3732" relative="1" as="geometry">
                        <mxPoint x="22" y="-10" as="offset"/>
                    </mxGeometry>
                </mxCell>
                <mxCell id="19" value="0..N" style="edgeLabel;html=1;align=center;verticalAlign=middle;resizable=0;points=[];fontSize=15;" parent="17" vertex="1" connectable="0">
                    <mxGeometry x="-0.9238" y="2" relative="1" as="geometry">
                        <mxPoint x="11" y="-8" as="offset"/>
                    </mxGeometry>
                </mxCell>
                <mxCell id="20" value="1" style="edgeLabel;html=1;align=center;verticalAlign=middle;resizable=0;points=[];fontSize=15;" parent="17" vertex="1" connectable="0">
                    <mxGeometry x="0.9019" relative="1" as="geometry">
                        <mxPoint x="10" as="offset"/>
                    </mxGeometry>
                </mxCell>
                <mxCell id="6" value="Debt" style="swimlane;childLayout=stackLayout;horizontal=1;startSize=30;horizontalStack=0;rounded=1;fontSize=14;fontStyle=0;strokeWidth=2;resizeParent=0;resizeLast=1;shadow=0;dashed=0;align=center;" parent="1" vertex="1">
                    <mxGeometry x="320" y="310" width="160" height="130" as="geometry"/>
                </mxCell>
                <mxCell id="7" value="&lt;&lt;PK&gt;&gt; Id&#10;Name&#10;Date&#10;Amount&#10;Description&#10;ResolvedDate" style="align=left;strokeColor=none;fillColor=none;spacingLeft=4;fontSize=12;verticalAlign=top;resizable=0;rotatable=0;part=1;" parent="6" vertex="1">
                    <mxGeometry y="30" width="160" height="100" as="geometry"/>
                </mxCell>
                <mxCell id="22" style="edgeStyle=none;html=1;exitX=1;exitY=0;exitDx=0;exitDy=0;fontSize=15;endArrow=none;endFill=0;entryX=0;entryY=0;entryDx=0;entryDy=0;" parent="1" source="3" target="5" edge="1">
                    <mxGeometry relative="1" as="geometry">
                        <mxPoint x="370" y="570" as="targetPoint"/>
                    </mxGeometry>
                </mxCell>
                <mxCell id="23" value="Registered" style="edgeLabel;html=1;align=center;verticalAlign=middle;resizable=0;points=[];fontSize=15;" parent="22" vertex="1" connectable="0">
                    <mxGeometry x="-0.1248" relative="1" as="geometry">
                        <mxPoint x="-61" y="-10" as="offset"/>
                    </mxGeometry>
                </mxCell>
                <mxCell id="24" value="0..N" style="edgeLabel;html=1;align=center;verticalAlign=middle;resizable=0;points=[];fontSize=15;" parent="22" vertex="1" connectable="0">
                    <mxGeometry x="-0.9287" y="2" relative="1" as="geometry">
                        <mxPoint x="9" y="12" as="offset"/>
                    </mxGeometry>
                </mxCell>
                <mxCell id="25" value="0..N" style="edgeLabel;html=1;align=center;verticalAlign=middle;resizable=0;points=[];fontSize=15;" parent="22" vertex="1" connectable="0">
                    <mxGeometry x="0.8988" y="-1" relative="1" as="geometry">
                        <mxPoint x="-5" y="9" as="offset"/>
                    </mxGeometry>
                </mxCell>
            </root>
        </mxGraphModel>
    </diagram>
</mxfile>